<svg width="16" height="16" viewBox="0 0 16 16" fill="none" xmlns="http://www.w3.org/2000/svg">
<g clip-path="url(#clip0_1_2)">
<rect width="16" height="16" fill="url(#paint0_angular_1_2)" fill-opacity="0.576471"/>
<path d="M4.87 5.71C5.77667 5.71 6.44333 5.89333 6.87 6.26C7.30333 6.62667 7.52 7.10667 7.52 7.7C7.52 7.9 7.49333 8.12333 7.44 8.37C7.31333 8.91667 7.07667 9.39667 6.73 9.81C6.38333 10.2167 5.95667 10.5333 5.45 10.76C4.95 10.98 4.40667 11.09 3.82 11.09C2.89333 11.09 2.20667 10.9067 1.76 10.54C1.32 10.1667 1.1 9.67333 1.1 9.06C1.1 8.85333 1.12667 8.62333 1.18 8.37C1.30667 7.85 1.54667 7.39 1.9 6.99C2.26 6.58333 2.69667 6.27 3.21 6.05C3.73 5.82333 4.28333 5.71 4.87 5.71ZM4.84 6.6C4.7 6.6 4.55 6.72667 4.39 6.98C4.23667 7.22667 4.05333 7.69667 3.84 8.39C3.62667 9.08333 3.52 9.57 3.52 9.85C3.52 9.99667 3.54333 10.0967 3.59 10.15C3.63667 10.1967 3.7 10.22 3.78 10.22C3.92 10.2333 4.06333 10.1133 4.21 9.86C4.36333 9.60667 4.55333 9.11333 4.78 8.38C4.98667 7.73333 5.09 7.26333 5.09 6.97C5.09 6.83 5.06667 6.73333 5.02 6.68C4.98 6.62667 4.92 6.6 4.84 6.6ZM13.4972 9.62C13.4839 9.64667 13.4772 9.68667 13.4772 9.74C13.4772 9.78667 13.4872 9.82333 13.5072 9.85C13.5339 9.87667 13.5672 9.89 13.6072 9.89C13.6872 9.89 13.7539 9.85667 13.8072 9.79C13.8672 9.71667 13.9072 9.68 13.9272 9.68C13.9605 9.68 13.9872 9.70333 14.0072 9.75C14.0272 9.79 14.0372 9.84 14.0372 9.9C14.0439 10.0933 13.9805 10.2833 13.8472 10.47C13.7139 10.65 13.5172 10.8 13.2572 10.92C13.0039 11.0333 12.6972 11.09 12.3372 11.09C11.8972 11.09 11.5472 10.99 11.2872 10.79C11.0272 10.5833 10.8939 10.31 10.8872 9.97C10.8872 9.72333 10.9472 9.44667 11.0672 9.14L11.6172 7.7C11.6505 7.61333 11.6672 7.54333 11.6672 7.49C11.6672 7.40333 11.6372 7.33667 11.5772 7.29C11.5239 7.23667 11.4572 7.21 11.3772 7.21C11.2505 7.21 11.1205 7.27 10.9872 7.39C10.8605 7.50333 10.7572 7.69 10.6772 7.95V7.93L10.0472 9.96C10.0272 10.04 10.0172 10.11 10.0172 10.17C10.0172 10.2567 10.0339 10.3267 10.0672 10.38C10.1005 10.4267 10.1472 10.4733 10.2072 10.52C10.2539 10.5667 10.2872 10.6067 10.3072 10.64C10.3272 10.6667 10.3305 10.7033 10.3172 10.75C10.2839 10.8367 10.2172 10.9 10.1172 10.94C10.0172 10.98 9.86385 11 9.65719 11H7.37719C7.20385 11 7.07719 10.9733 6.99719 10.92C6.91719 10.86 6.89052 10.7833 6.91719 10.69C6.94385 10.61 7.01385 10.54 7.12719 10.48C7.22719 10.4267 7.31052 10.3633 7.37719 10.29C7.44385 10.2167 7.50052 10.1 7.54719 9.94L9.06719 4.95C9.08719 4.89 9.09719 4.84 9.09719 4.8C9.09719 4.72667 9.07719 4.66667 9.03719 4.62C9.00385 4.57333 8.95719 4.52667 8.89719 4.48C8.83052 4.42667 8.78052 4.38 8.74719 4.34C8.72052 4.3 8.71719 4.24667 8.73719 4.18C8.77719 4.02667 8.98719 3.89333 9.36719 3.78C9.74719 3.66667 10.1439 3.61 10.5572 3.61C10.9439 3.61 11.2272 3.68333 11.4072 3.83C11.5939 3.97667 11.6872 4.17667 11.6872 4.43C11.6872 4.57667 11.6639 4.72 11.6172 4.86L11.0772 6.62C11.3372 6.28 11.6105 6.04333 11.8972 5.91C12.1905 5.77667 12.5072 5.71 12.8472 5.71C13.2539 5.71 13.5805 5.83333 13.8272 6.08C14.0805 6.32667 14.2072 6.64667 14.2072 7.04C14.2072 7.24667 14.1739 7.45 14.1072 7.65L13.4972 9.62Z" fill="white"/>
</g>
<defs>
<radialGradient id="paint0_angular_1_2" cx="0" cy="0" r="1" gradientUnits="userSpaceOnUse" gradientTransform="translate(8 8) rotate(90) scale(8)">
<stop offset="0.36548" stop-color="#FF79DA"/>
<stop offset="0.882945" stop-color="#9356DC"/>
</radialGradient>
<clipPath id="clip0_1_2">
<rect width="16" height="16" fill="white"/>
</clipPath>
</defs>
</svg>
